<?xml version="1.0" encoding="utf-8"?>
<!-- Generator: Adobe Illustrator 18.0.0, SVG Export Plug-In . SVG Version: 6.00 Build 0)  -->
<!DOCTYPE svg PUBLIC "-//W3C//DTD SVG 1.1//EN" "http://www.w3.org/Graphics/SVG/1.1/DTD/svg11.dtd">
<svg version="1.1" id="Ebene_1" xmlns="http://www.w3.org/2000/svg" xmlns:xlink="http://www.w3.org/1999/xlink" x="0px" y="0px"
	 viewBox="0 0 34.1 34.1" enable-background="new 0 0 34.1 34.1" xml:space="preserve">
<g>
	<g>
		<path fill="#D90C2E" d="M20.2,0C12.6,0,6.4,6.2,6.4,13.8c0,3.3,1.2,6.3,3.1,8.7l-9,9c-0.6,0.6-0.6,1.5,0,2.1
			c0.6,0.6,1.5,0.6,2.1,0l9-9c2.4,1.9,5.4,3.1,8.7,3.1c7.7,0,13.9-6.2,13.9-13.8S27.9,0,20.2,0L20.2,0z M20.2,25.4
			c-6.4,0-11.5-5.2-11.5-11.6c0-6.4,5.2-11.5,11.5-11.5c6.4,0,11.6,5.2,11.6,11.5C31.8,20.2,26.6,25.4,20.2,25.4L20.2,25.4z
			 M20.2,25.6"/>
	</g>
	<path fill="#D90C2E" d="M26.6,12.8h-5.3V7.5c0-0.6-0.5-1.1-1.1-1.1c-0.6,0-1.1,0.5-1.1,1.1v5.3h-5.3c-0.6,0-1.1,0.5-1.1,1.1
		c0,0.6,0.5,1.1,1.1,1.1h5.3v5.3c0,0.6,0.5,1.1,1.1,1.1c0.6,0,1.1-0.5,1.1-1.1v-5.3h5.3c0.6,0,1.1-0.5,1.1-1.1
		C27.7,13.3,27.2,12.8,26.6,12.8L26.6,12.8z M26.6,12.8"/>
</g>
</svg>
