<?xml version="1.0" encoding="utf-8"?>
<!-- Generator: Adobe Illustrator 18.0.0, SVG Export Plug-In . SVG Version: 6.00 Build 0)  -->
<!DOCTYPE svg PUBLIC "-//W3C//DTD SVG 1.0//EN" "http://www.w3.org/TR/2001/REC-SVG-20010904/DTD/svg10.dtd">
<svg version="1.0" id="Ebene_1" xmlns="http://www.w3.org/2000/svg" xmlns:xlink="http://www.w3.org/1999/xlink" x="0px" y="0px"
	 viewBox="0 0 100 33.8" enable-background="new 0 0 100 33.8" xml:space="preserve">
<path fill="#0D434F" d="M98.5,33.5H1.3c-0.5,0-1-0.5-1-1V1.4c0-0.5,0.5-1,1-1h97.2c0.6,0,1,0.5,1,1v31.1
	C99.5,33,99.1,33.5,98.5,33.5z"/>
<path id="LinkedIn" fill="#FFFFFF" d="M32.2,18.2v8h-4.6v-7.4c0-1.9-0.7-3.1-2.3-3.1c-1.3,0-2,0.9-2.4,1.7c-0.1,0.3-0.2,0.7-0.2,1.1
	v7.8h-4.6c0,0,0.1-12.6,0-13.9h4.6v2c0,0,0,0,0,0h0v0c0.6-0.9,1.7-2.3,4.2-2.3C29.9,12,32.2,14,32.2,18.2z M13.2,5.6
	c-1.6,0-2.6,1-2.6,2.4c0,1.3,1,2.4,2.6,2.4h0c1.6,0,2.6-1.1,2.6-2.4C15.8,6.6,14.8,5.6,13.2,5.6z M10.9,26.2h4.6V12.3h-4.6V26.2z"/>
<g>
	<path fill="#FFFFFF" d="M47.1,25.7V7h-3.9V5.6h9.6V7h-4v18.7H47.1z"/>
	<path fill="#FFFFFF" d="M53.1,19.3l0-2c0-5,1.6-5.9,3.9-5.9c2.5,0,3.5,1.8,3.5,5.5c0,0.6,0,0.9,0,1.4h-5.6v2.1
		c0,3.8,0.8,4.3,2.1,4.3c0.9,0,1.8-0.7,1.9-3.3v-0.1h1.6v0.1C60.2,23.9,59.6,26,57,26C54.1,26,53.1,24.5,53.1,19.3z M54.9,17.5h3.9
		v0c0-2.1,0.2-4.9-1.7-4.9C54.9,12.6,54.9,14.3,54.9,17.5L54.9,17.5z"/>
	<path fill="#FFFFFF" d="M63.2,8.5V6.4h1.8v2.1H63.2z M63.2,25.7v-14h1.8v14H63.2z"/>
	<path fill="#FFFFFF" d="M68.1,25.7V5.6h1.8v20.1H68.1z"/>
	<path fill="#FFFFFF" d="M72.8,19.3l0-2c0-5,1.6-5.9,3.9-5.9c2.5,0,3.5,1.8,3.5,5.5c0,0.6,0,0.9,0,1.4h-5.6v2.1
		c0,3.8,0.8,4.3,2.1,4.3c0.9,0,1.8-0.7,1.9-3.3v-0.1h1.6v0.1c-0.2,2.4-0.9,4.5-3.5,4.5C73.8,26,72.8,24.5,72.8,19.3z M74.6,17.5h3.9
		v0c0-2.1,0.2-4.9-1.7-4.9C74.6,12.6,74.6,14.3,74.6,17.5L74.6,17.5z"/>
	<path fill="#FFFFFF" d="M82.7,25.7v-14h1.8V13c0.8-1.1,1.9-1.6,3-1.6c1.2,0,2.6,1.1,2.6,3.3v11h-1.8v-11c0-1.5-0.7-2-1.5-2
		c-0.7,0-1.6,0.5-2.3,1.4v11.6H82.7z"/>
</g>
</svg>
