<?xml version="1.0" encoding="utf-8"?>
<!-- Generator: Adobe Illustrator 18.0.0, SVG Export Plug-In . SVG Version: 6.00 Build 0)  -->
<!DOCTYPE svg PUBLIC "-//W3C//DTD SVG 1.1//EN" "http://www.w3.org/Graphics/SVG/1.1/DTD/svg11.dtd">
<svg version="1.1" id="Icons" xmlns="http://www.w3.org/2000/svg" xmlns:xlink="http://www.w3.org/1999/xlink" x="0px" y="0px"
	 viewBox="0 0 29.5 28.5" enable-background="new 0 0 29.5 28.5" xml:space="preserve">
<path fill="#cccccc" d="M23.9,2.1H5.6C4,2.1,2.8,3.3,2.8,4.9v18.4c0,1.6,1.3,2.8,2.8,2.8h18.4c1.6,0,2.8-1.3,2.8-2.8V4.9
	C26.8,3.3,25.5,2.1,23.9,2.1z M18.5,17.3c0.4-0.3,1-0.5,1.6-0.5c1.5,0,2.6,1.2,2.6,2.6c0,1.5-1.2,2.6-2.6,2.6
	c-1.5,0-2.6-1.2-2.6-2.6v0l-6.7-3.2c-0.4,0.3-0.9,0.4-1.4,0.4c-1.5,0-2.6-1.2-2.6-2.6c0-1.5,1.2-2.6,2.6-2.6c0.6,0,1.2,0.2,1.6,0.6
	l6.5-3.1v0c0-1.5,1.2-2.6,2.6-2.6c1.5,0,2.6,1.2,2.6,2.6c0,1.5-1.2,2.6-2.6,2.6c-0.6,0-1.1-0.2-1.6-0.5L12,14l0,0.1L18.5,17.3z"/>
</svg>
