<?xml version="1.0" encoding="utf-8"?>
<!-- Generator: Adobe Illustrator 18.0.0, SVG Export Plug-In . SVG Version: 6.00 Build 0)  -->
<!DOCTYPE svg PUBLIC "-//W3C//DTD SVG 1.0//EN" "http://www.w3.org/TR/2001/REC-SVG-20010904/DTD/svg10.dtd">
<svg version="1.0" id="Ebene_1" xmlns="http://www.w3.org/2000/svg" xmlns:xlink="http://www.w3.org/1999/xlink" x="0px" y="0px"
	 viewBox="0 0 100 33.8" enable-background="new 0 0 100 33.8" xml:space="preserve">
<path fill="#A9321B" d="M98.5,33.5H1.3c-0.5,0-1-0.5-1-1V1.4c0-0.5,0.5-1,1-1h97.2c0.6,0,1,0.5,1,1v31.1
	C99.5,33,99.1,33.5,98.5,33.5z"/>
<g>
	<path fill="#FFFFFF" d="M47.1,25.7V7h-3.9V5.6h9.6V7h-4v18.7H47.1z"/>
	<path fill="#FFFFFF" d="M53.1,19.3l0-2c0-5,1.6-5.9,3.9-5.9c2.5,0,3.5,1.8,3.5,5.5c0,0.6,0,0.9,0,1.4h-5.6v2.1
		c0,3.8,0.8,4.3,2.1,4.3c0.9,0,1.8-0.7,1.9-3.3v-0.1h1.6v0.1C60.2,23.9,59.6,26,57,26C54.1,26,53.1,24.5,53.1,19.3z M54.9,17.5h3.9
		v0c0-2.1,0.2-4.9-1.7-4.9C54.9,12.6,54.9,14.3,54.9,17.5L54.9,17.5z"/>
	<path fill="#FFFFFF" d="M63.2,8.5V6.4h1.8v2.1H63.2z M63.2,25.7v-14h1.8v14H63.2z"/>
	<path fill="#FFFFFF" d="M68.1,25.7V5.6h1.8v20.1H68.1z"/>
	<path fill="#FFFFFF" d="M72.8,19.3l0-2c0-5,1.6-5.9,3.9-5.9c2.5,0,3.5,1.8,3.5,5.5c0,0.6,0,0.9,0,1.4h-5.6v2.1
		c0,3.8,0.8,4.3,2.1,4.3c0.9,0,1.8-0.7,1.9-3.3v-0.1h1.6v0.1c-0.2,2.4-0.9,4.5-3.5,4.5C73.8,26,72.8,24.5,72.8,19.3z M74.6,17.5h3.9
		v0c0-2.1,0.2-4.9-1.7-4.9C74.6,12.6,74.6,14.3,74.6,17.5L74.6,17.5z"/>
	<path fill="#FFFFFF" d="M82.7,25.7v-14h1.8V13c0.8-1.1,1.9-1.6,3-1.6c1.2,0,2.6,1.1,2.6,3.3v11h-1.8v-11c0-1.5-0.7-2-1.5-2
		c-0.7,0-1.6,0.5-2.3,1.4v11.6H82.7z"/>
</g>
<g>
	<path fill="#FFFFFF" d="M24.9,5.6H20c-2.2,0-3.7,0.5-5.1,1.6c-1.1,0.9-1.7,2.3-1.7,3.6c0,2,1.6,4.2,4.4,4.2c0.3,0,0.6,0,0.9-0.1
		l0,0.1c-0.1,0.3-0.2,0.5-0.2,1c0,0.8,0.4,1.3,0.8,1.8l0,0.1l-0.1,0c-1.2,0.1-3.4,0.2-5,1.2c-1.9,1.1-2.1,2.8-2.1,3.3
		c0,1.9,1.8,3.8,5.8,3.8c4.6,0,7.1-2.6,7.1-5.1c0-1.9-1.1-2.8-2.3-3.8l-1-0.8c-0.3-0.3-0.7-0.6-0.7-1.1c0-0.6,0.4-0.9,0.7-1.3l0,0
		c1.1-0.8,2.3-1.8,2.3-3.8c0-2.1-1.3-3.1-1.9-3.6h1.6c0,0,0,0,0.1,0L25,5.8c0,0,0.1-0.1,0-0.1C25,5.7,25,5.6,24.9,5.6z M19,25.1
		c-2.8,0-4.7-1.3-4.7-3.3c0-1.3,0.8-2.2,2.3-2.8c1.2-0.4,2.8-0.4,2.8-0.4c0.3,0,0.4,0,0.6,0c2,1.4,2.9,2.1,2.9,3.5
		C22.9,24,21.4,25.1,19,25.1z M19,14.3c-2.4,0-3.4-3.1-3.4-4.8c0-0.8,0.2-1.5,0.6-2c0.4-0.5,1.2-0.9,1.9-0.9c2.2,0,3.4,2.9,3.4,4.9
		c0,0.3,0,1.3-0.7,2C20.3,14,19.6,14.3,19,14.3z"/>
	<path fill="#FFFFFF" d="M31.8,15.3h-2.6v-2.6c0-0.1,0-0.1-0.1-0.1H28c-0.1,0-0.1,0-0.1,0.1v2.6h-2.6c-0.1,0-0.1,0-0.1,0.1v1.1
		c0,0.1,0,0.1,0.1,0.1h2.6v2.6c0,0.1,0,0.1,0.1,0.1h1.1c0.1,0,0.1,0,0.1-0.1v-2.6h2.6c0.1,0,0.1,0,0.1-0.1v-1.1
		C31.9,15.3,31.9,15.3,31.8,15.3z"/>
</g>
</svg>
