<?xml version="1.0" encoding="utf-8"?>
<!-- Generator: Adobe Illustrator 18.0.0, SVG Export Plug-In . SVG Version: 6.00 Build 0)  -->
<!DOCTYPE svg PUBLIC "-//W3C//DTD SVG 1.0//EN" "http://www.w3.org/TR/2001/REC-SVG-20010904/DTD/svg10.dtd">
<svg version="1.0" id="Ebene_1" xmlns="http://www.w3.org/2000/svg" xmlns:xlink="http://www.w3.org/1999/xlink" x="0px" y="0px"
	 viewBox="0 0 100 33.8" enable-background="new 0 0 100 33.8" xml:space="preserve">
<path fill="#0EA7D1" d="M98.5,33.5H1.3c-0.5,0-1-0.5-1-1V1.4c0-0.5,0.5-1,1-1h97.2c0.6,0,1,0.5,1,1v31.1
	C99.5,33,99.1,33.5,98.5,33.5z"/>
<g>
	<path fill="#FFFFFF" d="M47,26.2V7.4h-3.9V6h9.7v1.4h-4v18.8H47z"/>
	<path fill="#FFFFFF" d="M55.4,26.2l-2.3-14.1h1.5l1.8,12.3l2.1-12.3h1.9l2.2,12.3l1.6-12.3h1.5l-2.3,14.1h-1.8l-2.2-12.1l-2.1,12.1
		H55.4z"/>
	<path fill="#FFFFFF" d="M67.6,19.8l0-2c0-5,1.6-6,3.9-6c2.6,0,3.6,1.8,3.6,5.6c0,0.6,0,0.9,0,1.4h-5.6V21c0,3.8,0.8,4.4,2.1,4.4
		c0.9,0,1.8-0.7,1.9-3.4v-0.1H75V22c-0.2,2.4-0.9,4.6-3.5,4.6C68.7,26.6,67.6,25.1,67.6,19.8z M69.4,18h3.9v0c0-2.2,0.2-4.9-1.7-4.9
		C69.4,13,69.4,14.7,69.4,18L69.4,18z"/>
	<path fill="#FFFFFF" d="M77.5,19.8l0-2c0-5,1.6-6,3.9-6c2.6,0,3.6,1.8,3.6,5.6c0,0.6,0,0.9,0,1.4h-5.6V21c0,3.8,0.8,4.4,2.1,4.4
		c0.9,0,1.8-0.7,1.9-3.4v-0.1h1.6V22c-0.2,2.4-0.9,4.6-3.5,4.6C78.5,26.6,77.5,25.1,77.5,19.8z M79.3,18h3.9v0
		c0-2.2,0.2-4.9-1.7-4.9C79.3,13,79.3,14.7,79.3,18L79.3,18z"/>
	<path fill="#FFFFFF" d="M88.2,22.9v-9.8h-1.9v-1h1.9v-5H90v5h2.3v1H90v9.7c0,1.4,0,2.3,1.2,2.3c0.3,0,0.7,0,1-0.1v1.2
		c-0.6,0.2-1.1,0.2-1.5,0.2C88.4,26.5,88.2,24.7,88.2,22.9z"/>
</g>
<path fill="#FFFFFF" d="M33.9,8.2C33,8.6,32,8.8,31,9c1.1-0.6,1.9-1.6,2.2-2.8c-1,0.6-2.1,1-3.2,1.2c-0.9-1-2.3-1.6-3.7-1.6
	c-2.8,0-5.1,2.3-5.1,5.1c0,0.4,0,0.8,0.1,1.2c-4.2-0.2-8-2.2-10.5-5.3C10.3,7.5,10,8.3,10,9.3c0,1.8,0.9,3.3,2.3,4.3
	c-0.8,0-1.6-0.3-2.3-0.6v0.1c0,2.5,1.8,4.5,4.1,5c-0.4,0.1-0.9,0.2-1.3,0.2c-0.3,0-0.6,0-1-0.1c0.7,2,2.5,3.5,4.8,3.5
	c-1.7,1.4-4,2.2-6.3,2.2c-0.4,0-0.8,0-1.2-0.1c2.3,1.5,4.9,2.3,7.8,2.3c9.4,0,14.5-7.8,14.5-14.5l0-0.7C32.4,10.1,33.2,9.2,33.9,8.2
	z"/>
</svg>
