<?xml version="1.0" encoding="utf-8"?>
<!-- Generator: Adobe Illustrator 18.0.0, SVG Export Plug-In . SVG Version: 6.00 Build 0)  -->
<!DOCTYPE svg PUBLIC "-//W3C//DTD SVG 1.0//EN" "http://www.w3.org/TR/2001/REC-SVG-20010904/DTD/svg10.dtd">
<svg version="1.0" id="Ebene_1" xmlns="http://www.w3.org/2000/svg" xmlns:xlink="http://www.w3.org/1999/xlink" x="0px" y="0px"
	 viewBox="0 0 100 33.8" enable-background="new 0 0 100 33.8" xml:space="preserve">
<path fill="#0D434F" d="M98.5,33.5H1.3c-0.5,0-1-0.5-1-1V1.4c0-0.5,0.5-1,1-1h97.2c0.6,0,1,0.5,1,1v31.1
	C99.5,33,99.1,33.5,98.5,33.5z"/>
<g>
	<path fill="#FFFFFF" d="M45.3,26.2l3.3-10.6l-3.3-9.9h4l1.9,6.1l2.1-6.1h3.9l-3.3,9.9l3.3,10.7h-3.9l-2-6.8l-1.9,6.8H45.3z"/>
	<path fill="#FFFFFF" d="M58.7,26.2V5.6h4.2v20.6H58.7z"/>
	<path fill="#FFFFFF" d="M65.3,26.2V5.6h3l4.5,10.8V5.6h3.5v20.6h-2.9l-4.5-11.4v11.4H65.3z"/>
	<path fill="#FFFFFF" d="M78.5,19.7v-7.2c0-4.1,1.5-7.3,6.1-7.3c4.3,0,5.9,2.9,5.9,6.9v1.2h-4v-1.4c0-1.5-0.2-3.4-1.9-3.4
		c-1.6,0-1.9,1.7-1.9,3v8.9c0,1.4,0.3,3,1.9,3c1.6,0,1.9-1.8,1.9-3.1v-1.6h-2.4v-3h6.5v10.6h-2.9l-0.5-1.4c-0.7,1.1-2.1,1.8-3.5,1.8
		C79.9,26.6,78.5,22.9,78.5,19.7z"/>
</g>
<path id="Xing" fill="#FFFFFF" d="M23.7,28.2l-5-8.8l7.8-13.7h5.3L24,19.3l5,8.8H23.7z M15.5,21.3l3.9-6.4l-2.9-5.2h-5l2.9,5.2
	l-3.9,6.4H15.5z"/>
</svg>
